<?xml version="1.0" encoding="UTF-8" standalone="no"?>
<!-- Created with Inkscape (http://www.inkscape.org/) -->

<svg
   xmlns:dc="http://purl.org/dc/elements/1.1/"
   xmlns:cc="http://creativecommons.org/ns#"
   xmlns:rdf="http://www.w3.org/1999/02/22-rdf-syntax-ns#"
   xmlns:svg="http://www.w3.org/2000/svg"
   xmlns="http://www.w3.org/2000/svg"
   xmlns:sodipodi="http://sodipodi.sourceforge.net/DTD/sodipodi-0.dtd"
   xmlns:inkscape="http://www.inkscape.org/namespaces/inkscape"
   width="512"
   height="512"
   viewBox="0 0 135.46666 135.46667"
   version="1.1"
   id="svg8"
   inkscape:version="0.92.3 (2405546, 2018-03-11)"
   sodipodi:docname="Caracol-gris-teotl.svg">
  <defs
     id="defs2" />
  <sodipodi:namedview
     id="base"
     pagecolor="#ffffff"
     bordercolor="#666666"
     borderopacity="1.0"
     inkscape:pageopacity="0.0"
     inkscape:pageshadow="2"
     inkscape:zoom="1.979899"
     inkscape:cx="-67.81385"
     inkscape:cy="251.38969"
     inkscape:document-units="mm"
     inkscape:current-layer="layer1"
     showgrid="false"
     units="px"
     inkscape:window-width="1920"
     inkscape:window-height="1016"
     inkscape:window-x="0"
     inkscape:window-y="27"
     inkscape:window-maximized="1"
     inkscape:pagecheckerboard="true" />
  <metadata
     id="metadata5">
    <rdf:RDF>
      <cc:Work
         rdf:about="">
        <dc:format>image/svg+xml</dc:format>
        <dc:type
           rdf:resource="http://purl.org/dc/dcmitype/StillImage" />
        <dc:title></dc:title>
      </cc:Work>
    </rdf:RDF>
  </metadata>
  <g
     inkscape:label="Layer 1"
     inkscape:groupmode="layer"
     id="layer1"
     transform="translate(0,-161.53332)">
    <path
       inkscape:connector-curvature="0"
       id="path881"
       d="m 19.437116,294.18615 c -1.29127,-0.99126 -2.348368,-1.82466 -2.349087,-1.85199 -7.32e-4,-0.0274 4.577289,-5.62302 10.173365,-12.43486 6.024849,-7.33377 10.170055,-12.4143 10.163313,-12.45662 -0.0068,-0.0393 -0.193746,-0.2288 -0.416631,-0.42112 -1.701621,-1.4683 -3.636802,-3.44966 -5.039379,-5.15964 -2.602929,-3.17343 -4.720367,-6.98833 -6.050014,-10.90007 -0.956955,-2.81531 -1.513327,-5.5027 -1.779352,-8.59471 -0.106627,-1.23936 -0.106627,-4.34932 2.7e-5,-5.58823 0.410731,-4.77123 1.585186,-9.00169 3.638552,-13.1063 0.219955,-0.43968 0.399919,-0.82646 0.399919,-0.85952 0,-0.0331 -1.727151,-1.3876 -3.838118,-3.0101 -2.11098,-1.62251 -3.846813,-2.96405 -3.857422,-2.98121 -0.02089,-0.0339 3.603281,-4.76329 3.650137,-4.76329 0.0156,0 1.670677,1.26216 3.677839,2.80477 2.007175,1.54263 3.683644,2.80375 3.725481,2.80247 0.04395,-0.001 0.22941,-0.19384 0.438662,-0.45522 1.248999,-1.56016 3.226085,-3.55954 4.756384,-4.81003 0.281543,-0.23006 0.526419,-0.44282 0.544163,-0.4728 0.01777,-0.0301 0.0068,-0.0806 -0.02618,-0.11287 -0.03215,-0.0322 -6.683725,-5.15272 -14.781326,-11.37909 -8.097601,-6.22636 -14.7228711,-11.34134 -14.7228304,-11.36661 6.78e-5,-0.0407 3.4641374,-4.57348 3.5958064,-4.70523 0.0411,-0.0411 3.35496,2.51504 15.643335,12.06655 8.575156,6.6653 15.616528,12.12868 15.647485,12.14082 0.03093,0.0122 0.17493,-0.0305 0.319935,-0.095 1.368499,-0.60751 2.602562,-1.07422 3.76162,-1.42259 7.167343,-2.15428 14.869883,-1.47671 21.499724,1.89126 3.854315,1.95801 7.267811,4.80188 9.779103,8.14727 4.266999,5.68418 5.715632,12.97086 3.97288,19.98362 -0.419317,1.68729 -0.929986,3.06801 -1.744067,4.71546 -0.726012,1.46927 -1.320531,2.43804 -2.263894,3.68902 -3.857232,5.11502 -8.957466,7.99203 -14.905669,8.40817 -0.879156,0.0615 -2.615775,0.0284 -3.43398,-0.0654 -3.966816,-0.45507 -7.439581,-1.93288 -10.472585,-4.45656 -0.519514,-0.43227 -1.733635,-1.62933 -2.20997,-2.17892 -2.183489,-2.51922 -3.515782,-5.64241 -3.876007,-9.08619 -0.06606,-0.63226 -0.06606,-2.43913 0,-3.07139 0.331439,-3.16861 1.47027,-6.04236 3.354974,-8.46598 0.941463,-1.21066 2.129226,-2.3524 3.285557,-3.15823 3.679073,-2.56391 8.341161,-3.14515 12.605501,-1.57158 0.579977,0.21401 1.782093,0.80552 2.327517,1.14525 3.351677,2.0877 5.396823,5.18473 5.8449,8.85118 0.09808,0.80251 0.06579,2.39792 -0.0639,3.15258 -0.206688,1.20343 -0.520274,2.18835 -1.02671,3.22481 -0.55834,1.1427 -1.172787,2.02696 -2.023088,2.91146 -0.871437,0.90647 -1.729864,1.54614 -2.776557,2.06898 -2.167835,1.08284 -4.527326,1.32473 -6.92529,0.70995 -1.217621,-0.31218 -2.551976,-0.98681 -3.589959,-1.81506 -0.37143,-0.29638 -1.053245,-0.93418 -1.107969,-1.03644 -0.02998,-0.0562 0.0917,-0.1852 0.609875,-0.64648 0.35606,-0.317 1.363969,-1.21472 2.239774,-1.99496 l 1.592375,-1.4186 0.199267,0.18463 c 0.735983,0.68195 1.584534,1.0146 2.588129,1.0146 0.631811,0 1.076198,-0.0979 1.619154,-0.35698 0.47822,-0.22812 0.817784,-0.48273 1.234225,-0.9254 0.742807,-0.78961 1.237224,-1.7946 1.415003,-2.8763 0.107577,-0.65408 0.06566,-1.552 -0.103099,-2.20906 -0.215981,-0.84137 -0.646992,-1.64912 -1.224893,-2.29554 -2.249324,-2.51603 -5.878013,-3.24017 -8.933916,-1.78285 -1.693752,0.80773 -3.242391,2.43787 -4.180422,4.40044 -0.749468,1.56807 -1.09477,3.3468 -0.980682,5.05176 0.173492,2.59278 1.201125,4.83084 3.087456,6.7241 2.201654,2.20976 4.925156,3.51842 8.152435,3.91732 0.556236,0.0688 2.354051,0.0692 2.900764,7.2e-4 2.699382,-0.33813 4.979771,-1.28506 7.031225,-2.91972 0.614284,-0.48948 2.019574,-1.90943 2.56329,-2.59004 0.808817,-1.01242 1.603133,-2.27017 2.140648,-3.38955 2.349087,-4.89199 2.32224,-10.67164 -0.0719,-15.47908 -0.917588,-1.8425 -1.885504,-3.1836 -3.44954,-4.77952 -1.815505,-1.85249 -3.763995,-3.27252 -6.059469,-4.416 -2.978606,-1.4838 -6.015788,-2.25836 -9.375102,-2.39092 -5.027482,-0.19839 -10.024834,1.28874 -14.110106,4.19894 -2.91954,2.07978 -5.664271,5.10929 -7.687915,8.48559 -0.497362,0.82981 -1.383165,2.57408 -1.76869,3.48279 -1.914507,4.51265 -2.673715,9.53887 -2.183923,14.45839 0.52296,5.25269 2.455564,10.24496 5.606441,14.48245 1.75302,2.35758 4.162461,4.79281 6.697168,6.76883 7.707518,6.00872 17.493092,8.72021 27.365229,7.58261 7.491185,-0.86322 14.541293,-4.02366 20.329285,-9.11323 5.695866,-5.00857 10.195193,-11.46807 12.894443,-18.51204 2.65283,-6.92284 3.65247,-14.3885 2.92613,-21.85303 -0.94025,-9.66254 -4.87549,-18.82133 -11.282463,-26.25846 l -0.528047,-0.61295 -0.107712,-0.42472 c -0.05915,-0.2336 -0.118429,-0.45286 -0.131723,-0.48727 -0.01546,-0.0404 4.595141,-5.67374 13.010325,-15.89626 7.16889,-8.70854 13.03434,-15.85222 13.03434,-15.87485 0,-0.0227 0.032,-0.0411 0.0711,-0.0411 0.0391,0 0.0593,0.0122 0.0448,0.0263 -0.0144,0.0144 1.03335,0.84036 2.32843,1.83538 1.29508,0.99502 2.35469,1.8274 2.35469,1.84974 0,0.0224 -5.25017,6.36632 -11.66702,14.0977 -6.41685,7.73138 -11.67319,14.0957 -11.68075,14.14293 -0.009,0.0554 0.12929,0.27902 0.3884,0.62898 5.03752,6.80331 8.37863,14.71729 9.73512,23.05935 0.81986,5.04202 0.91399,10.33146 0.27455,15.42818 -0.26414,2.10542 -0.65525,4.20209 -1.17608,6.30488 -0.19225,0.77616 -0.2258,0.96308 -0.18231,1.01549 0.0293,0.0353 1.74072,1.36215 3.80312,2.94851 2.65994,2.04599 3.74467,2.90397 3.73214,2.95194 -0.0176,0.0674 -3.37308,4.45884 -3.54826,4.64372 l -0.0923,0.0974 -2.94101,-2.26225 c -1.61757,-1.24424 -2.97173,-2.26227 -3.00925,-2.26231 -0.0477,-3e-5 -0.15536,0.20745 -0.3593,0.69314 -1.09357,2.60433 -2.39456,5.09188 -4.11801,7.87381 -0.0575,0.0929 -0.0526,0.1069 0.0768,0.2162 0.0761,0.0643 5.78131,4.45387 12.67822,9.75468 6.89691,5.30082 12.54069,9.66199 12.54175,9.69151 0.003,0.0684 -3.5731,4.72044 -3.63897,4.73463 -0.027,0.005 -5.52955,-4.20479 -12.22795,-9.35689 -14.292437,-10.99307 -13.00183,-10.00888 -13.07104,-9.9678 -0.0303,0.0179 -0.32178,0.34836 -0.647878,0.73426 -0.994817,1.17728 -1.73099,1.97393 -3.002115,3.24881 -2.344989,2.35192 -4.162868,3.88836 -6.591667,5.57121 -8.157128,5.6518 -18.306888,8.33307 -28.300181,7.47611 -6.642227,-0.5696 -12.920104,-2.57882 -18.613135,-5.95707 -0.416428,-0.2471 -0.783802,-0.43906 -0.816387,-0.42656 -0.03256,0.0122 -0.939049,1.09435 -2.014365,2.40411 -1.075303,1.30974 -5.572744,6.78687 -9.994284,12.17141 -4.421553,5.38453 -8.145217,9.91963 -8.274811,10.07799 -0.129553,0.15837 -0.249691,0.28795 -0.266892,0.28795 -0.01723,0 -1.087757,-0.81104 -2.379026,-1.80232 z"
       style="fill:#fefefe;fill-opacity:0.24522293;stroke-width:0.04265819" />
  </g>
</svg>
