<?xml version="1.0" encoding="UTF-8" standalone="no"?>
<!-- Created with Inkscape (http://www.inkscape.org/) -->

<svg
   xmlns:dc="http://purl.org/dc/elements/1.1/"
   xmlns:cc="http://creativecommons.org/ns#"
   xmlns:rdf="http://www.w3.org/1999/02/22-rdf-syntax-ns#"
   xmlns:svg="http://www.w3.org/2000/svg"
   xmlns="http://www.w3.org/2000/svg"
   xmlns:sodipodi="http://sodipodi.sourceforge.net/DTD/sodipodi-0.dtd"
   xmlns:inkscape="http://www.inkscape.org/namespaces/inkscape"
   width="925"
   height="990"
   viewBox="0 0 244.73958 261.93751"
   version="1.1"
   id="svg871"
   inkscape:version="0.92.3 (2405546, 2018-03-11)"
   sodipodi:docname="Isotipo-blanco-teotl-SemiTransparent17.svg">
  <defs
     id="defs865" />
  <sodipodi:namedview
     id="base"
     pagecolor="#ffffff"
     bordercolor="#666666"
     borderopacity="1.0"
     inkscape:pageopacity="0.0"
     inkscape:pageshadow="2"
     inkscape:zoom="0.7"
     inkscape:cx="431.36786"
     inkscape:cy="566.99083"
     inkscape:document-units="mm"
     inkscape:current-layer="layer1"
     showgrid="false"
     inkscape:pagecheckerboard="true"
     units="px"
     inkscape:window-width="3840"
     inkscape:window-height="2066"
     inkscape:window-x="-11"
     inkscape:window-y="-11"
     inkscape:window-maximized="1" />
  <metadata
     id="metadata868">
    <rdf:RDF>
      <cc:Work
         rdf:about="">
        <dc:format>image/svg+xml</dc:format>
        <dc:type
           rdf:resource="http://purl.org/dc/dcmitype/StillImage" />
        <dc:title></dc:title>
      </cc:Work>
    </rdf:RDF>
  </metadata>
  <g
     inkscape:label="Layer 1"
     inkscape:groupmode="layer"
     id="layer1"
     transform="translate(0,-35.062483)">
    <g
       transform="matrix(2.2156496,0,0,2.2156496,-27.194528,-347.09599)"
       id="layer1-4-1"
       inkscape:label="Layer 1"
       style="fill:#ffffff;fill-opacity:0.21176471">
      <path
         inkscape:export-ydpi="96"
         inkscape:export-xdpi="96"
         inkscape:export-filename="C:\TEOTL\PAGINA-WEB\img\Logo\isotipo-blanco-teotl.png"
         style="fill:#ffffff;fill-opacity:0.21176471;stroke-width:0.2270699"
         d="m 41.215131,289.98242 c 0,-0.0692 0.176956,-0.20227 0.393233,-0.29564 0.216269,-0.0934 1.44961,-1.41182 2.740752,-2.92991 1.291143,-1.51808 2.463123,-2.79922 2.604409,-2.84697 0.141279,-0.0477 2.61138,-0.0139 5.48911,0.0753 7.955272,0.24637 23.600703,0.22988 31.283751,-0.033 l 6.866646,-0.23492 2.836959,3.19553 2.836957,3.19552 H 68.741041 c -15.139248,0 -27.52591,-0.0567 -27.52591,-0.12587 z m 18.094817,-10.65868 c -0.659476,-0.0483 -3.84608,-0.25789 -7.08134,-0.4659 -3.235252,-0.20801 -5.957655,-0.42873 -6.049775,-0.49049 -0.09211,-0.0618 -0.167481,-3.52541 -0.167481,-7.69698 v -7.58468 l 2.343605,0.16048 c 7.251376,0.49655 9.962622,0.62399 16.187227,0.76093 7.089935,0.15597 15.063573,-0.12563 26.161178,-0.92392 l 0.763033,-0.0549 0.0576,7.553 c 0.03172,4.15415 -0.02719,7.64505 -0.130938,7.75755 -0.372552,0.40417 -11.017333,0.90963 -20.855625,0.99032 -5.51565,0.0452 -10.568029,0.0428 -11.227504,-0.005 z m 3.233349,-21.16281 c -5.164439,-0.24549 -16.350753,-1.37529 -16.696179,-1.68629 -0.216977,-0.19535 -0.264208,-2.41669 -0.219606,-10.32849 l 0.05685,-10.0796 5.341239,-0.0666 c 2.937682,-0.0366 5.575034,-0.004 5.86078,0.0715 0.483895,0.12865 0.510732,0.21877 0.391173,1.31389 -0.07061,0.64667 -0.187553,1.27966 -0.259889,1.40663 -0.07235,0.12698 -0.714369,0.23087 -1.42672,0.23087 h -1.295196 v 0.82778 0.82777 l 1.253561,0.004 c 0.689452,0.002 1.361716,0.0818 1.493914,0.17738 0.132207,0.0956 0.415283,0.75912 0.629063,1.47454 0.525152,1.75743 0.883334,2.50392 1.886069,3.93077 1.528851,2.17549 4.322906,3.90306 6.901961,4.26747 0.563764,0.0796 1.147656,0.2496 1.297537,0.37763 0.195373,0.1669 0.272513,1.19304 0.272513,3.62486 0,3.11159 -0.03485,3.41231 -0.421685,3.6369 -0.231924,0.13465 -0.59982,0.22854 -0.817539,0.20863 -0.217719,-0.0199 -2.129231,-0.1186 -4.247817,-0.2193 z m 7.158456,-0.13869 c -0.281939,-0.30585 -0.16472,-6.86293 0.127172,-7.1141 0.149881,-0.12897 0.812085,-0.36575 1.47156,-0.52617 1.917495,-0.46645 4.547209,-1.95777 6.037251,-3.42376 2.374067,-2.33574 3.881091,-5.51787 4.318126,-9.11786 0.08686,-0.71543 0.257047,-1.43382 0.378213,-1.59642 0.307985,-0.41332 9.335511,-0.4243 9.715734,-0.0118 0.385867,0.41861 0.375378,19.89723 -0.01088,20.23883 -0.28849,0.25511 -5.854551,0.78282 -14.334142,1.35898 -5.649999,0.38389 -7.484215,0.42969 -7.703013,0.19233 z m -4.102715,-9.48892 c -2.634377,-0.77296 -4.902753,-2.94898 -6.105294,-5.85674 -0.726383,-1.7564 -0.817976,-4.97611 -0.192752,-6.77597 1.74652,-5.02787 7.667112,-6.80335 10.919832,-3.27467 2.505326,2.7179 2.123884,6.98418 -0.770136,8.61346 -1.6588,0.93388 -3.697715,0.45988 -4.776709,-1.11045 -0.336388,-0.48958 -0.458814,-1.01537 -0.458814,-1.97059 0,-1.17261 0.07119,-1.37182 0.71198,-1.99295 1.365819,-1.32392 3.539216,-0.61493 3.539216,1.15452 0,0.67718 -0.564357,1.46645 -1.048557,1.46645 -0.299753,0 -0.574878,1.03915 -0.403442,1.5238 0.09107,0.25748 0.278503,0.29336 0.756152,0.14475 1.590839,-0.49496 2.299679,-1.517 2.275108,-3.28037 -0.04178,-2.99546 -3.260548,-4.55834 -5.732734,-2.78353 -1.273485,0.91426 -1.797334,2.20888 -1.694288,4.18726 0.107726,2.0682 0.85517,3.31341 2.581338,4.30036 1.06038,0.60629 1.359623,0.67123 2.650551,0.57525 3.50292,-0.26046 5.826016,-3.2318 5.587838,-7.14709 -0.165009,-2.71247 -1.66928,-5.16355 -3.950057,-6.43626 -1.618318,-0.90305 -4.513195,-1.04734 -6.306294,-0.31433 -1.767812,0.72268 -3.176231,1.84348 -4.268953,3.3972 l -0.941959,1.33933 h -5.936255 c -4.326408,0 -6.0072,-0.077 -6.197867,-0.28381 -0.386527,-0.41931 -0.375881,-22.02352 0.01104,-22.37186 0.348096,-0.31341 11.747728,-1.00355 17.604166,-1.06576 l 4.469194,-0.0475 0.109003,4.39902 c 0.118908,4.79847 0.179528,5.03029 1.379251,5.27445 1.100722,0.22402 3.604812,1.61729 5.07835,2.82558 2.37836,1.95026 4.414647,5.326 5.244867,8.6949 0.511976,2.07752 0.505113,6.01256 -0.01376,7.89636 -1.118446,4.06052 -3.669684,7.06112 -7.271745,8.55255 -1.975379,0.81792 -4.795579,0.96889 -6.848255,0.36662 z m 16.438769,-14.4353 c -0.335983,-0.23145 -0.808813,-2.86754 -0.561488,-3.13036 0.0988,-0.10499 0.572052,-0.22462 1.051671,-0.26583 0.838121,-0.072 0.872044,-0.10713 0.872044,-0.9027 v -0.82777 l -1.409885,-0.11826 -1.409886,-0.11826 -0.946235,-1.8341 c -1.755477,-3.40268 -4.823528,-6.35082 -7.967336,-7.65591 -0.860888,-0.35739 -1.687886,-0.74939 -1.837767,-0.87112 -0.323854,-0.26302 -0.387391,-7.16854 -0.07094,-7.71084 0.162834,-0.27906 0.995864,-0.30856 5.065389,-0.17939 7.251121,0.23015 16.595457,0.86553 16.911303,1.14989 0.390629,0.35171 0.405255,21.95236 0.01516,22.37557 -0.300825,0.32635 -9.248426,0.40842 -9.712002,0.089 z M 46.156693,206.46381 c -0.208433,-0.22611 -0.180261,-14.92743 0.02884,-15.06764 0.20662,-0.13853 8.545815,-0.9797 13.342399,-1.34583 4.360932,-0.33288 14.176449,-0.33654 18.639843,-0.007 6.00083,0.44311 11.963297,0.99957 12.644567,1.18006 l 0.654029,0.17327 0.05751,7.61239 0.05751,7.61237 H 68.941695 c -12.451839,0 -22.705118,-0.071 -22.785051,-0.15768 z M 12.873857,178.12244 v -5.08489 h 55.047478 55.047475 l 2.3e-4,5.02577 2.1e-4,5.02575 -2.67092,-0.0771 c -1.469,-0.0425 -2.73927,-0.14887 -2.82282,-0.23651 -0.0834,-0.0876 -0.21921,-1.1704 -0.30166,-2.40615 -0.0824,-1.23574 -0.23826,-2.43306 -0.34628,-2.66069 -0.18614,-0.39231 -2.73514,-0.41389 -48.88721,-0.41389 -38.687636,0 -48.736931,0.0607 -48.915239,0.29564 -0.123432,0.16259 -0.295239,1.38652 -0.381797,2.71982 l -0.157379,2.4242 h -2.588037 c -1.580011,0 -2.588028,0.0921 -2.588028,0.2365 0,0.13008 -0.09811,0.2365 -0.218016,0.2365 -0.138576,0 -0.218007,-1.85263 -0.218007,-5.08489 z"
         id="path848-9"
         inkscape:connector-curvature="0" />
    </g>
  </g>
</svg>
