<?xml version="1.0" encoding="UTF-8" standalone="no"?>
<!-- Created with Inkscape (http://www.inkscape.org/) -->

<svg
   xmlns:dc="http://purl.org/dc/elements/1.1/"
   xmlns:cc="http://creativecommons.org/ns#"
   xmlns:rdf="http://www.w3.org/1999/02/22-rdf-syntax-ns#"
   xmlns:svg="http://www.w3.org/2000/svg"
   xmlns="http://www.w3.org/2000/svg"
   xmlns:sodipodi="http://sodipodi.sourceforge.net/DTD/sodipodi-0.dtd"
   xmlns:inkscape="http://www.inkscape.org/namespaces/inkscape"
   version="1.1"
   id="svg2"
   xml:space="preserve"
   width="590"
   height="340"
   viewBox="0 0 590 340"
   sodipodi:docname="LogoTeotl.svg"
   inkscape:version="0.92.3 (2405546, 2018-03-11)"><metadata
     id="metadata8"><rdf:RDF><cc:Work
         rdf:about=""><dc:format>image/svg+xml</dc:format><dc:type
           rdf:resource="http://purl.org/dc/dcmitype/StillImage" /><dc:title></dc:title></cc:Work></rdf:RDF></metadata><defs
     id="defs6"><clipPath
       clipPathUnits="userSpaceOnUse"
       id="clipPath22"><path
         d="M 0,540 H 720 V 0 H 0 Z"
         id="path20"
         inkscape:connector-curvature="0" /></clipPath><linearGradient
       x1="0"
       y1="0"
       x2="1"
       y2="0"
       gradientUnits="userSpaceOnUse"
       gradientTransform="matrix(79.1274,0,0,-79.1274,197.962,386.862)"
       spreadMethod="pad"
       id="linearGradient136"><stop
         style="stop-opacity:1;stop-color:#f5ae37"
         offset="0"
         id="stop132" /><stop
         style="stop-opacity:1;stop-color:#f48034"
         offset="1"
         id="stop134" /></linearGradient><linearGradient
       x1="0"
       y1="0"
       x2="1"
       y2="0"
       gradientUnits="userSpaceOnUse"
       gradientTransform="matrix(79.1274,0,0,-79.1274,197.962,271.165)"
       spreadMethod="pad"
       id="linearGradient156"><stop
         style="stop-opacity:1;stop-color:#f5ae37"
         offset="0"
         id="stop152" /><stop
         style="stop-opacity:1;stop-color:#f48034"
         offset="1"
         id="stop154" /></linearGradient><linearGradient
       x1="0"
       y1="0"
       x2="1"
       y2="0"
       gradientUnits="userSpaceOnUse"
       gradientTransform="matrix(95.3383,0,0,-95.3383,189.857,246.665)"
       spreadMethod="pad"
       id="linearGradient176"><stop
         style="stop-opacity:1;stop-color:#f5ae37"
         offset="0"
         id="stop172" /><stop
         style="stop-opacity:1;stop-color:#f48034"
         offset="1"
         id="stop174" /></linearGradient><linearGradient
       x1="0"
       y1="0"
       x2="1"
       y2="0"
       gradientUnits="userSpaceOnUse"
       gradientTransform="matrix(79.1274,0,0,-79.1274,197.96,329.648)"
       spreadMethod="pad"
       id="linearGradient196"><stop
         style="stop-opacity:1;stop-color:#f30f3e"
         offset="0"
         id="stop192" /><stop
         style="stop-opacity:1;stop-color:#9d1344"
         offset="1"
         id="stop194" /></linearGradient><clipPath
       clipPathUnits="userSpaceOnUse"
       id="clipPath206"><path
         d="M 0,540 H 720 V 0 H 0 Z"
         id="path204"
         inkscape:connector-curvature="0" /></clipPath><linearGradient
       x1="0"
       y1="0"
       x2="1"
       y2="0"
       gradientUnits="userSpaceOnUse"
       gradientTransform="matrix(189.154,0,0,-189.154,141.5,418.581)"
       spreadMethod="pad"
       id="linearGradient228"><stop
         style="stop-opacity:1;stop-color:#f5ae37"
         offset="0"
         id="stop224" /><stop
         style="stop-opacity:1;stop-color:#f48034"
         offset="1"
         id="stop226" /></linearGradient><clipPath
       clipPathUnits="userSpaceOnUse"
       id="clipPath238"><path
         d="M 0,540 H 720 V 0 H 0 Z"
         id="path236"
         inkscape:connector-curvature="0" /></clipPath></defs><sodipodi:namedview
     pagecolor="#ffffff"
     bordercolor="#666666"
     borderopacity="1"
     objecttolerance="10"
     gridtolerance="10"
     guidetolerance="10"
     inkscape:pageopacity="0"
     inkscape:pageshadow="2"
     inkscape:window-width="2400"
     inkscape:window-height="1271"
     id="namedview4"
     showgrid="false"
     inkscape:zoom="0.92709556"
     inkscape:cx="160.55257"
     inkscape:cy="376.43487"
     inkscape:window-x="2391"
     inkscape:window-y="-9"
     inkscape:window-maximized="1"
     inkscape:current-layer="g10" /><g
     id="g10"
     inkscape:groupmode="layer"
     inkscape:label="Manual de Identidad-Teotl"
     transform="matrix(1.3333333,0,0,-1.3333333,0,340)"><g
       id="g4865"
       transform="translate(-139.95321,-175.58263)"><g
         id="g16"><g
           clip-path="url(#clipPath22)"
           id="g18"><g
             transform="translate(195.48,198.706)"
             id="g24"><path
               inkscape:connector-curvature="0"
               id="path26"
               style="fill:#9d1344;fill-opacity:1;fill-rule:nonzero;stroke:none"
               d="m 0,0 c 0,-0.481 0.115,-0.937 0.346,-1.363 0.23,-0.428 0.536,-0.8 0.919,-1.116 0.384,-0.319 0.839,-0.57 1.363,-0.755 0.525,-0.188 1.083,-0.28 1.674,-0.28 0.613,0 1.189,0.092 1.725,0.28 0.537,0.185 1.001,0.436 1.395,0.755 0.394,0.316 0.706,0.688 0.937,1.116 0.23,0.426 0.345,0.882 0.345,1.363 0,0.48 -0.115,0.94 -0.345,1.38 C 8.128,1.817 7.816,2.195 7.422,2.512 7.028,2.83 6.564,3.081 6.027,3.267 5.491,3.454 4.915,3.548 4.302,3.548 3.711,3.548 3.153,3.454 2.628,3.267 2.104,3.081 1.649,2.83 1.265,2.512 0.882,2.195 0.576,1.817 0.346,1.38 0.115,0.94 0,0.48 0,0 m -1.247,-11.494 c 0,-0.439 0.116,-0.849 0.346,-1.233 0.228,-0.382 0.546,-0.716 0.952,-1.001 0.404,-0.285 0.87,-0.515 1.395,-0.691 0.525,-0.173 1.085,-0.261 1.674,-0.261 0.615,0 1.194,0.088 1.742,0.261 0.547,0.176 1.023,0.406 1.429,0.691 0.403,0.285 0.722,0.619 0.952,1.001 0.23,0.384 0.345,0.794 0.345,1.233 0,0.416 -0.115,0.813 -0.345,1.198 -0.23,0.383 -0.549,0.716 -0.952,1.001 -0.406,0.285 -0.882,0.516 -1.429,0.691 -0.548,0.173 -1.127,0.261 -1.742,0.261 -0.589,0 -1.149,-0.088 -1.674,-0.261 -0.525,-0.175 -0.991,-0.406 -1.395,-0.691 -0.406,-0.285 -0.724,-0.618 -0.952,-1.001 -0.23,-0.385 -0.346,-0.782 -0.346,-1.198 m 3.284,5.286 c 0.043,0 0.07,0.006 0.082,0.018 0.012,0.009 0.039,0.015 0.082,0.015 h 0.067 c 0.108,0.045 0.245,0.067 0.409,0.067 H 3.12 c 0.942,0 1.824,-0.143 2.644,-0.428 0.821,-0.285 1.533,-0.667 2.136,-1.15 0.601,-0.481 1.078,-1.051 1.429,-1.707 0.349,-0.657 0.525,-1.357 0.525,-2.101 0,-0.745 -0.176,-1.451 -0.525,-2.118 -0.351,-0.668 -0.828,-1.249 -1.429,-1.742 -0.603,-0.493 -1.315,-0.887 -2.136,-1.181 -0.82,-0.297 -1.702,-0.444 -2.644,-0.444 -0.897,0 -1.75,0.147 -2.56,0.444 -0.811,0.294 -1.522,0.688 -2.135,1.181 -0.614,0.493 -1.1,1.074 -1.461,1.742 -0.363,0.667 -0.542,1.373 -0.542,2.118 0,0.919 0.279,1.777 0.837,2.578 0.558,0.798 1.285,1.439 2.183,1.92 -0.064,0.175 -0.103,0.362 -0.115,0.559 -0.01,0.198 -0.015,0.405 -0.015,0.623 0,0.285 0.037,0.564 0.114,0.839 0.076,0.273 0.17,0.519 0.28,0.738 -1.358,1.094 -2.038,2.507 -2.038,4.237 0,0.789 0.176,1.538 0.527,2.25 0.349,0.71 0.822,1.335 1.411,1.871 0.591,0.537 1.291,0.958 2.103,1.265 0.81,0.306 1.674,0.46 2.593,0.46 0.549,0 1.007,-0.034 1.38,-0.099 C 6.055,5.683 6.427,5.604 6.8,5.517 h 6.37 L 10.937,3.153 H 9.984 C 10.291,2.715 10.538,2.221 10.724,1.675 10.909,1.126 11.003,0.568 11.003,0 c 0,-0.833 -0.176,-1.6 -0.525,-2.3 C 10.126,-3 9.65,-3.613 9.05,-4.138 8.447,-4.663 7.734,-5.074 6.915,-5.369 6.094,-5.666 5.223,-5.814 4.302,-5.814 c -0.327,0 -0.618,0.021 -0.87,0.066 -0.251,0.043 -0.486,0.088 -0.704,0.131 -0.395,0.109 -0.703,0.166 -0.921,0.166 -0.109,0 -0.219,-0.024 -0.328,-0.067 -0.109,-0.044 -0.164,-0.121 -0.164,-0.23 0,-0.196 0.06,-0.323 0.18,-0.376 0.121,-0.057 0.248,-0.084 0.378,-0.084 z" /></g><g
             transform="translate(220.669,197.294)"
             id="g28"><path
               inkscape:connector-curvature="0"
               id="path30"
               style="fill:#9d1344;fill-opacity:1;fill-rule:nonzero;stroke:none"
               d="m 0,0 c -0.088,0.7 -0.257,1.353 -0.509,1.953 -0.252,0.603 -0.564,1.122 -0.935,1.561 -0.372,0.437 -0.794,0.776 -1.264,1.018 -0.472,0.24 -0.97,0.362 -1.495,0.362 -0.505,0 -0.981,-0.127 -1.43,-0.379 C -6.082,4.264 -6.491,3.914 -6.864,3.465 -7.237,3.017 -7.553,2.495 -7.816,1.904 -8.078,1.313 -8.265,0.679 -8.374,0 Z m -3.842,-7.325 c 0.307,0 0.646,0.039 1.019,0.115 0.37,0.078 0.743,0.182 1.116,0.313 0.373,0.132 0.739,0.273 1.101,0.427 0.36,0.152 0.694,0.296 1,0.427 l 0.919,-2.07 c -0.7,-0.394 -1.411,-0.716 -2.134,-0.968 -0.722,-0.251 -1.444,-0.442 -2.168,-0.575 -0.131,-0.022 -0.279,-0.032 -0.443,-0.032 h -0.41 c -0.919,0 -1.791,0.202 -2.61,0.607 -0.822,0.404 -1.555,0.964 -2.201,1.675 -0.646,0.712 -1.167,1.549 -1.561,2.512 -0.394,0.964 -0.622,1.993 -0.689,3.087 v 0.624 c 0,1.162 0.181,2.256 0.543,3.285 0.36,1.028 0.842,1.925 1.443,2.692 0.603,0.767 1.31,1.374 2.119,1.824 0.81,0.447 1.674,0.673 2.595,0.673 0.941,0 1.811,-0.214 2.611,-0.642 C -0.794,6.224 -0.098,5.637 0.494,4.894 1.085,4.148 1.543,3.272 1.873,2.266 2.201,1.259 2.365,0.164 2.365,-1.019 v -1.28 H -8.44 c 0.087,-0.723 0.263,-1.39 0.526,-2.004 0.262,-0.612 0.595,-1.138 1.001,-1.576 0.406,-0.439 0.871,-0.788 1.395,-1.052 0.527,-0.261 1.085,-0.394 1.676,-0.394" /></g><g
             transform="translate(226.976,196.045)"
             id="g32"><path
               inkscape:connector-curvature="0"
               id="path34"
               style="fill:#9d1344;fill-opacity:1;fill-rule:nonzero;stroke:none"
               d="m 0,0 c 0,-0.831 0.141,-1.619 0.425,-2.364 0.285,-0.744 0.67,-1.39 1.15,-1.938 0.482,-0.547 1.046,-0.979 1.692,-1.298 0.645,-0.316 1.342,-0.476 2.085,-0.476 0.722,0 1.407,0.16 2.053,0.476 0.646,0.319 1.209,0.751 1.691,1.298 0.482,0.548 0.865,1.194 1.15,1.938 0.285,0.745 0.427,1.533 0.427,2.364 0,0.854 -0.142,1.653 -0.427,2.398 C 9.961,3.142 9.578,3.793 9.096,4.354 8.614,4.911 8.051,5.349 7.405,5.666 6.759,5.982 6.074,6.143 5.352,6.143 4.609,6.143 3.912,5.982 3.267,5.666 2.621,5.349 2.057,4.911 1.575,4.354 1.095,3.793 0.71,3.142 0.425,2.398 0.141,1.653 0,0.854 0,0 m -2.398,0 c 0,1.183 0.201,2.289 0.607,3.317 0.406,1.031 0.964,1.928 1.676,2.695 0.71,0.764 1.537,1.374 2.478,1.822 0.942,0.449 1.939,0.673 2.989,0.673 1.073,0 2.08,-0.224 3.023,-0.673 C 9.315,7.386 10.13,6.776 10.821,6.012 11.51,5.245 12.056,4.348 12.462,3.317 12.868,2.289 13.071,1.183 13.071,0 c 0,-1.161 -0.203,-2.255 -0.609,-3.283 C 12.056,-4.312 11.51,-5.209 10.821,-5.977 10.13,-6.743 9.315,-7.35 8.375,-7.799 7.432,-8.247 6.425,-8.472 5.352,-8.472 c -1.05,0 -2.047,0.225 -2.989,0.673 -0.941,0.449 -1.768,1.056 -2.478,1.822 -0.712,0.768 -1.27,1.665 -1.676,2.694 -0.406,1.028 -0.607,2.122 -0.607,3.283" /></g><path
             inkscape:connector-curvature="0"
             id="path36"
             style="fill:#9d1344;fill-opacity:1;fill-rule:nonzero;stroke:none"
             d="m 242.608,210.268 h 2.332 v -22.366 h -2.332 z" /><g
             transform="translate(249.145,196.045)"
             id="g38"><path
               inkscape:connector-curvature="0"
               id="path40"
               style="fill:#9d1344;fill-opacity:1;fill-rule:nonzero;stroke:none"
               d="M 0,0 C 0,-0.831 0.14,-1.619 0.425,-2.364 0.71,-3.108 1.094,-3.754 1.574,-4.302 2.056,-4.849 2.62,-5.281 3.266,-5.6 c 0.646,-0.316 1.342,-0.476 2.086,-0.476 0.722,0 1.407,0.16 2.052,0.476 0.646,0.319 1.21,0.751 1.692,1.298 0.482,0.548 0.864,1.194 1.149,1.938 0.285,0.745 0.427,1.533 0.427,2.364 0,0.854 -0.142,1.653 -0.427,2.398 C 9.96,3.142 9.578,3.793 9.096,4.354 8.614,4.911 8.05,5.349 7.404,5.666 6.759,5.982 6.074,6.143 5.352,6.143 4.608,6.143 3.912,5.982 3.266,5.666 2.62,5.349 2.056,4.911 1.574,4.354 1.094,3.793 0.71,3.142 0.425,2.398 0.14,1.653 0,0.854 0,0 m -2.398,0 c 0,1.183 0.201,2.289 0.606,3.317 0.406,1.031 0.964,1.928 1.677,2.695 0.71,0.764 1.537,1.374 2.478,1.822 0.942,0.449 1.939,0.673 2.989,0.673 1.073,0 2.08,-0.224 3.022,-0.673 C 9.314,7.386 10.13,6.776 10.821,6.012 11.51,5.245 12.056,4.348 12.462,3.317 12.868,2.289 13.071,1.183 13.071,0 c 0,-1.161 -0.203,-2.255 -0.609,-3.283 C 12.056,-4.312 11.51,-5.209 10.821,-5.977 10.13,-6.743 9.314,-7.35 8.374,-7.799 7.432,-8.247 6.425,-8.472 5.352,-8.472 c -1.05,0 -2.047,0.225 -2.989,0.673 -0.941,0.449 -1.768,1.056 -2.478,1.822 -0.713,0.768 -1.271,1.665 -1.677,2.694 -0.405,1.028 -0.606,2.122 -0.606,3.283" /></g><g
             transform="translate(267.567,198.706)"
             id="g42"><path
               inkscape:connector-curvature="0"
               id="path44"
               style="fill:#9d1344;fill-opacity:1;fill-rule:nonzero;stroke:none"
               d="m 0,0 c 0,-0.481 0.115,-0.937 0.346,-1.363 0.23,-0.428 0.536,-0.8 0.919,-1.116 0.384,-0.319 0.839,-0.57 1.363,-0.755 0.525,-0.188 1.083,-0.28 1.675,-0.28 0.612,0 1.188,0.092 1.724,0.28 0.537,0.185 1.001,0.436 1.395,0.755 0.394,0.316 0.707,0.688 0.937,1.116 0.23,0.426 0.346,0.882 0.346,1.363 0,0.48 -0.116,0.94 -0.346,1.38 C 8.129,1.817 7.816,2.195 7.422,2.512 7.028,2.83 6.564,3.081 6.027,3.267 5.491,3.454 4.915,3.548 4.303,3.548 3.711,3.548 3.153,3.454 2.628,3.267 2.104,3.081 1.649,2.83 1.265,2.512 0.882,2.195 0.576,1.817 0.346,1.38 0.115,0.94 0,0.48 0,0 m -1.247,-11.494 c 0,-0.439 0.116,-0.849 0.346,-1.233 0.228,-0.382 0.546,-0.716 0.952,-1.001 0.404,-0.285 0.87,-0.515 1.395,-0.691 0.525,-0.173 1.085,-0.261 1.674,-0.261 0.615,0 1.194,0.088 1.742,0.261 0.547,0.176 1.023,0.406 1.429,0.691 0.404,0.285 0.722,0.619 0.952,1.001 0.23,0.384 0.345,0.794 0.345,1.233 0,0.416 -0.115,0.813 -0.345,1.198 -0.23,0.383 -0.548,0.716 -0.952,1.001 -0.406,0.285 -0.882,0.516 -1.429,0.691 -0.548,0.173 -1.127,0.261 -1.742,0.261 -0.589,0 -1.149,-0.088 -1.674,-0.261 -0.525,-0.175 -0.991,-0.406 -1.395,-0.691 -0.406,-0.285 -0.724,-0.618 -0.952,-1.001 -0.23,-0.385 -0.346,-0.782 -0.346,-1.198 m 3.284,5.286 c 0.043,0 0.07,0.006 0.082,0.018 0.012,0.009 0.039,0.015 0.082,0.015 h 0.067 c 0.109,0.045 0.245,0.067 0.409,0.067 H 3.12 c 0.942,0 1.824,-0.143 2.644,-0.428 0.821,-0.285 1.533,-0.667 2.136,-1.15 0.601,-0.481 1.078,-1.051 1.429,-1.707 0.349,-0.657 0.525,-1.357 0.525,-2.101 0,-0.745 -0.176,-1.451 -0.525,-2.118 -0.351,-0.668 -0.828,-1.249 -1.429,-1.742 -0.603,-0.493 -1.315,-0.887 -2.136,-1.181 -0.82,-0.297 -1.702,-0.444 -2.644,-0.444 -0.897,0 -1.75,0.147 -2.56,0.444 -0.811,0.294 -1.522,0.688 -2.134,1.181 -0.615,0.493 -1.101,1.074 -1.462,1.742 -0.362,0.667 -0.542,1.373 -0.542,2.118 0,0.919 0.279,1.777 0.837,2.578 0.558,0.798 1.285,1.439 2.183,1.92 -0.064,0.175 -0.103,0.362 -0.115,0.559 -0.01,0.198 -0.015,0.405 -0.015,0.623 0,0.285 0.037,0.564 0.115,0.839 0.076,0.273 0.169,0.519 0.279,0.738 -1.358,1.094 -2.038,2.507 -2.038,4.237 0,0.789 0.176,1.538 0.527,2.25 0.349,0.71 0.822,1.335 1.411,1.871 0.591,0.537 1.292,0.958 2.103,1.265 0.81,0.306 1.675,0.46 2.594,0.46 0.548,0 1.007,-0.034 1.379,-0.099 C 6.055,5.683 6.427,5.604 6.8,5.517 h 6.37 L 10.937,3.153 H 9.984 C 10.291,2.715 10.539,2.221 10.724,1.675 10.909,1.126 11.003,0.568 11.003,0 c 0,-0.833 -0.176,-1.6 -0.525,-2.3 C 10.127,-3 9.651,-3.613 9.05,-4.138 8.447,-4.663 7.735,-5.074 6.915,-5.369 6.094,-5.666 5.224,-5.814 4.303,-5.814 c -0.328,0 -0.619,0.021 -0.871,0.066 -0.251,0.043 -0.486,0.088 -0.704,0.131 -0.394,0.109 -0.703,0.166 -0.921,0.166 -0.109,0 -0.219,-0.024 -0.328,-0.067 -0.109,-0.044 -0.164,-0.121 -0.164,-0.23 0,-0.196 0.061,-0.323 0.18,-0.376 0.121,-0.057 0.248,-0.084 0.379,-0.084 z" /></g><path
             inkscape:connector-curvature="0"
             id="path46"
             style="fill:#9d1344;fill-opacity:1;fill-rule:nonzero;stroke:none"
             d="m 282.873,204.355 h 2.365 v -16.454 h -2.365 z m 1.083,1.116 h -1.905 l 2.792,3.712 h 3.776 z" /><path
             inkscape:connector-curvature="0"
             id="path48"
             style="fill:#9d1344;fill-opacity:1;fill-rule:nonzero;stroke:none"
             d="m 398.548,204.355 h 2.364 v -16.454 h -2.364 z m 1.083,1.116 h -1.904 l 2.792,3.712 h 3.775 z" /><g
             transform="translate(297.816,195.651)"
             id="g50"><path
               inkscape:connector-curvature="0"
               id="path52"
               style="fill:#9d1344;fill-opacity:1;fill-rule:nonzero;stroke:none"
               d="m 0,0 h -2.989 c -0.919,0 -1.703,-0.262 -2.347,-0.789 -0.648,-0.524 -0.97,-1.225 -0.97,-2.101 0,-0.394 0.082,-0.756 0.246,-1.083 0.164,-0.33 0.388,-0.621 0.673,-0.87 0.285,-0.254 0.613,-0.451 0.985,-0.592 0.373,-0.142 0.777,-0.214 1.216,-0.214 0.437,0 0.854,0.072 1.249,0.214 0.394,0.141 0.731,0.338 1.016,0.592 0.285,0.249 0.509,0.54 0.675,0.87 C -0.082,-3.646 0,-3.284 0,-2.89 Z m 0,-7.126 c -0.46,-0.307 -0.964,-0.542 -1.512,-0.706 -0.547,-0.164 -1.105,-0.246 -1.674,-0.246 -0.746,0 -1.45,0.137 -2.119,0.41 -0.668,0.272 -1.247,0.646 -1.74,1.115 -0.492,0.473 -0.887,1.019 -1.183,1.644 -0.294,0.624 -0.443,1.297 -0.443,2.019 0,0.767 0.152,1.473 0.461,2.119 0.306,0.646 0.716,1.198 1.231,1.659 0.513,0.458 1.116,0.821 1.807,1.083 0.688,0.262 1.416,0.393 2.183,0.393 H 0 v 0.1 C 0,3.58 -0.251,4.526 -0.755,5.305 -1.26,6.081 -1.928,6.491 -2.759,6.536 -3.329,6.536 -3.947,6.487 -4.614,6.388 -5.284,6.29 -5.979,6.13 -6.7,5.912 L -7.292,8.21 c 0.768,0.219 1.528,0.389 2.283,0.51 0.756,0.12 1.516,0.18 2.283,0.18 0.677,-0.023 1.319,-0.186 1.92,-0.493 C -0.203,8.101 0.328,7.691 0.788,7.176 1.247,6.661 1.614,6.054 1.889,5.354 2.162,4.653 2.32,3.908 2.365,3.119 V 2.792 C 2.341,2.267 2.332,1.719 2.332,1.148 2.308,0.646 2.298,0.088 2.298,-0.525 v -1.871 c 0,-0.57 0.016,-1.134 0.049,-1.692 0.033,-0.558 0.088,-1.079 0.164,-1.561 0.078,-0.482 0.176,-0.91 0.297,-1.28 0.119,-0.373 0.257,-0.646 0.409,-0.821 H 0 Z" /></g><g
             transform="translate(311.643,184.715)"
             id="g54"><path
               inkscape:connector-curvature="0"
               id="path56"
               style="fill:#9d1344;fill-opacity:1;fill-rule:nonzero;stroke:none"
               d="m 0,0 c 0.306,-0.328 0.575,-0.52 0.806,-0.574 0.23,-0.054 0.431,-0.081 0.607,-0.081 0.635,0 1.252,0.212 1.855,0.639 0.603,0.427 1.056,1.056 1.364,1.889 0.109,0.262 0.207,0.515 0.294,0.755 0.088,0.24 0.186,0.492 0.297,0.755 0.11,0.24 0.201,0.465 0.279,0.674 0.076,0.208 0.17,0.43 0.279,0.672 C 5.627,5.103 5.475,5.479 5.321,5.863 5.168,6.245 5.026,6.624 4.893,6.995 4.499,7.937 4.074,8.966 3.613,10.083 3.153,11.199 2.694,12.327 2.234,13.465 1.773,14.604 1.319,15.721 0.87,16.815 0.421,17.909 0.012,18.916 -0.361,19.837 H 2.167 L 6.963,7.752 c 0.504,1.269 1.013,2.556 1.526,3.857 0.515,1.304 1.036,2.613 1.561,3.926 0.263,0.7 0.543,1.428 0.837,2.184 0.297,0.755 0.586,1.461 0.87,2.118 h 2.529 L 8.113,4.599 C 8.003,4.356 7.91,4.117 7.833,3.875 7.756,3.635 7.664,3.395 7.555,3.153 7.443,2.825 7.309,2.479 7.143,2.119 6.979,1.758 6.842,1.391 6.733,1.019 6.491,0.384 6.175,-0.18 5.781,-0.673 5.387,-1.165 4.948,-1.586 4.468,-1.937 3.986,-2.287 3.482,-2.55 2.956,-2.726 2.431,-2.899 1.906,-2.987 1.379,-2.987 c -0.503,0 -1.083,0.088 -1.74,0.261 z" /></g><g
             transform="translate(340.379,198.706)"
             id="g58"><path
               inkscape:connector-curvature="0"
               id="path60"
               style="fill:#9d1344;fill-opacity:1;fill-rule:nonzero;stroke:none"
               d="m 0,0 c 0,-0.481 0.115,-0.937 0.346,-1.363 0.23,-0.428 0.536,-0.8 0.919,-1.116 0.384,-0.319 0.839,-0.57 1.363,-0.755 0.525,-0.188 1.083,-0.28 1.674,-0.28 0.613,0 1.189,0.092 1.725,0.28 0.537,0.185 1.001,0.436 1.395,0.755 0.394,0.316 0.707,0.688 0.937,1.116 0.23,0.426 0.345,0.882 0.345,1.363 0,0.48 -0.115,0.94 -0.345,1.38 C 8.129,1.817 7.816,2.195 7.422,2.512 7.028,2.83 6.564,3.081 6.027,3.267 5.491,3.454 4.915,3.548 4.302,3.548 3.711,3.548 3.153,3.454 2.628,3.267 2.104,3.081 1.649,2.83 1.265,2.512 0.882,2.195 0.576,1.817 0.346,1.38 0.115,0.94 0,0.48 0,0 m -1.247,-11.494 c 0,-0.439 0.116,-0.849 0.346,-1.233 0.228,-0.382 0.546,-0.716 0.952,-1.001 0.404,-0.285 0.87,-0.515 1.395,-0.691 0.525,-0.173 1.085,-0.261 1.674,-0.261 0.615,0 1.194,0.088 1.742,0.261 0.547,0.176 1.023,0.406 1.429,0.691 0.403,0.285 0.722,0.619 0.952,1.001 0.23,0.384 0.345,0.794 0.345,1.233 0,0.416 -0.115,0.813 -0.345,1.198 -0.23,0.383 -0.549,0.716 -0.952,1.001 -0.406,0.285 -0.882,0.516 -1.429,0.691 -0.548,0.173 -1.127,0.261 -1.742,0.261 -0.589,0 -1.149,-0.088 -1.674,-0.261 -0.525,-0.175 -0.991,-0.406 -1.395,-0.691 -0.406,-0.285 -0.724,-0.618 -0.952,-1.001 -0.23,-0.385 -0.346,-0.782 -0.346,-1.198 m 3.284,5.286 c 0.043,0 0.07,0.006 0.082,0.018 0.012,0.009 0.039,0.015 0.082,0.015 h 0.067 c 0.108,0.045 0.245,0.067 0.409,0.067 H 3.12 c 0.942,0 1.824,-0.143 2.644,-0.428 0.821,-0.285 1.533,-0.667 2.136,-1.15 0.601,-0.481 1.078,-1.051 1.429,-1.707 0.349,-0.657 0.525,-1.357 0.525,-2.101 0,-0.745 -0.176,-1.451 -0.525,-2.118 -0.351,-0.668 -0.828,-1.249 -1.429,-1.742 -0.603,-0.493 -1.315,-0.887 -2.136,-1.181 -0.82,-0.297 -1.702,-0.444 -2.644,-0.444 -0.897,0 -1.75,0.147 -2.56,0.444 -0.811,0.294 -1.522,0.688 -2.134,1.181 -0.615,0.493 -1.101,1.074 -1.462,1.742 -0.363,0.667 -0.542,1.373 -0.542,2.118 0,0.919 0.279,1.777 0.837,2.578 0.558,0.798 1.285,1.439 2.183,1.92 -0.064,0.175 -0.103,0.362 -0.115,0.559 -0.01,0.198 -0.015,0.405 -0.015,0.623 0,0.285 0.037,0.564 0.114,0.839 0.076,0.273 0.17,0.519 0.28,0.738 -1.358,1.094 -2.038,2.507 -2.038,4.237 0,0.789 0.176,1.538 0.527,2.25 0.349,0.71 0.822,1.335 1.411,1.871 0.591,0.537 1.291,0.958 2.103,1.265 0.81,0.306 1.674,0.46 2.593,0.46 0.549,0 1.007,-0.034 1.38,-0.099 C 6.055,5.683 6.427,5.604 6.8,5.517 h 6.37 L 10.937,3.153 H 9.984 C 10.291,2.715 10.539,2.221 10.724,1.675 10.909,1.126 11.003,0.568 11.003,0 c 0,-0.833 -0.176,-1.6 -0.525,-2.3 C 10.126,-3 9.65,-3.613 9.05,-4.138 8.447,-4.663 7.734,-5.074 6.915,-5.369 6.094,-5.666 5.223,-5.814 4.302,-5.814 c -0.327,0 -0.618,0.021 -0.87,0.066 -0.251,0.043 -0.486,0.088 -0.704,0.131 -0.395,0.109 -0.703,0.166 -0.921,0.166 -0.109,0 -0.219,-0.024 -0.328,-0.067 -0.109,-0.044 -0.164,-0.121 -0.164,-0.23 0,-0.196 0.06,-0.323 0.18,-0.376 0.121,-0.057 0.248,-0.084 0.378,-0.084 z" /></g><g
             transform="translate(365.568,197.294)"
             id="g62"><path
               inkscape:connector-curvature="0"
               id="path64"
               style="fill:#9d1344;fill-opacity:1;fill-rule:nonzero;stroke:none"
               d="m 0,0 c -0.088,0.7 -0.258,1.353 -0.509,1.953 -0.252,0.603 -0.564,1.122 -0.934,1.561 -0.373,0.437 -0.795,0.776 -1.265,1.018 -0.473,0.24 -0.97,0.362 -1.495,0.362 -0.505,0 -0.981,-0.127 -1.43,-0.379 C -6.082,4.264 -6.491,3.914 -6.864,3.465 -7.237,3.017 -7.553,2.495 -7.816,1.904 -8.078,1.313 -8.265,0.679 -8.374,0 Z m -3.842,-7.325 c 0.307,0 0.646,0.039 1.019,0.115 0.371,0.078 0.743,0.182 1.116,0.313 0.373,0.132 0.739,0.273 1.101,0.427 0.36,0.152 0.694,0.296 1.001,0.427 l 0.918,-2.07 c -0.7,-0.394 -1.411,-0.716 -2.134,-0.968 -0.722,-0.251 -1.445,-0.442 -2.168,-0.575 -0.131,-0.022 -0.279,-0.032 -0.443,-0.032 h -0.41 c -0.919,0 -1.791,0.202 -2.61,0.607 -0.822,0.404 -1.555,0.964 -2.201,1.675 -0.646,0.712 -1.167,1.549 -1.561,2.512 -0.394,0.964 -0.622,1.993 -0.689,3.087 v 0.624 c 0,1.162 0.181,2.256 0.543,3.285 0.36,1.028 0.842,1.925 1.443,2.692 0.603,0.767 1.31,1.374 2.119,1.824 0.81,0.447 1.674,0.673 2.595,0.673 0.941,0 1.811,-0.214 2.611,-0.642 C -0.794,6.224 -0.098,5.637 0.494,4.894 1.085,4.148 1.544,3.272 1.873,2.266 2.201,1.259 2.365,0.164 2.365,-1.019 v -1.28 H -8.44 c 0.087,-0.723 0.263,-1.39 0.526,-2.004 0.262,-0.612 0.595,-1.138 1.001,-1.576 0.406,-0.439 0.871,-0.788 1.395,-1.052 0.527,-0.261 1.085,-0.394 1.676,-0.394" /></g><g
             transform="translate(371.875,196.045)"
             id="g66"><path
               inkscape:connector-curvature="0"
               id="path68"
               style="fill:#9d1344;fill-opacity:1;fill-rule:nonzero;stroke:none"
               d="m 0,0 c 0,-0.831 0.141,-1.619 0.425,-2.364 0.285,-0.744 0.67,-1.39 1.149,-1.938 0.483,-0.547 1.046,-0.979 1.692,-1.298 0.646,-0.316 1.342,-0.476 2.086,-0.476 0.721,0 1.407,0.16 2.052,0.476 0.646,0.319 1.21,0.751 1.692,1.298 0.482,0.548 0.864,1.194 1.149,1.938 0.285,0.745 0.428,1.533 0.428,2.364 0,0.854 -0.143,1.653 -0.428,2.398 C 9.96,3.142 9.578,3.793 9.096,4.354 8.614,4.911 8.05,5.349 7.404,5.666 6.759,5.982 6.073,6.143 5.352,6.143 4.608,6.143 3.912,5.982 3.266,5.666 2.62,5.349 2.057,4.911 1.574,4.354 1.095,3.793 0.71,3.142 0.425,2.398 0.141,1.653 0,0.854 0,0 m -2.398,0 c 0,1.183 0.201,2.289 0.606,3.317 0.406,1.031 0.964,1.928 1.677,2.695 0.71,0.764 1.537,1.374 2.477,1.822 0.943,0.449 1.94,0.673 2.99,0.673 1.073,0 2.08,-0.224 3.022,-0.673 C 9.314,7.386 10.13,6.776 10.82,6.012 11.51,5.245 12.056,4.348 12.462,3.317 12.867,2.289 13.07,1.183 13.07,0 13.07,-1.161 12.867,-2.255 12.462,-3.283 12.056,-4.312 11.51,-5.209 10.82,-5.977 10.13,-6.743 9.314,-7.35 8.374,-7.799 7.432,-8.247 6.425,-8.472 5.352,-8.472 c -1.05,0 -2.047,0.225 -2.99,0.673 -0.94,0.449 -1.767,1.056 -2.477,1.822 -0.713,0.768 -1.271,1.665 -1.677,2.694 -0.405,1.028 -0.606,2.122 -0.606,3.283" /></g><g
             transform="translate(395.485,207.836)"
             id="g70"><path
               inkscape:connector-curvature="0"
               id="path72"
               style="fill:#9d1344;fill-opacity:1;fill-rule:nonzero;stroke:none"
               d="M 0,0 C -0.415,0.109 -0.728,0.17 -0.937,0.182 -1.146,0.191 -1.324,0.197 -1.479,0.197 -2.222,0.152 -2.856,-0.219 -3.383,-0.919 -3.908,-1.621 -4.171,-2.495 -4.171,-3.547 v -0.264 h 4.04 v -2.396 h -4.04 v -13.728 h -2.266 v 13.728 h -2.332 v 2.396 h 2.299 c -0.021,0 -0.033,0.012 -0.033,0.034 v 0.066 0.098 0.426 c 0.045,0.768 0.209,1.501 0.493,2.202 0.283,0.7 0.651,1.313 1.101,1.839 0.447,0.526 0.968,0.941 1.559,1.248 0.591,0.306 1.215,0.46 1.871,0.46 0.243,0 0.509,-0.006 0.806,-0.018 0.295,-0.01 0.761,-0.061 1.396,-0.146 z" /></g><g
             transform="translate(413.153,200.644)"
             id="g74"><path
               inkscape:connector-curvature="0"
               id="path76"
               style="fill:#9d1344;fill-opacity:1;fill-rule:nonzero;stroke:none"
               d="m 0,0 c -0.503,0.48 -1.095,0.854 -1.773,1.116 -0.679,0.264 -1.369,0.395 -2.069,0.395 -0.897,0 -1.646,-0.192 -2.25,-0.576 -0.602,-0.382 -0.903,-0.892 -0.903,-1.526 0,-0.612 0.312,-1.179 0.936,-1.691 0.625,-0.516 1.429,-0.861 2.414,-1.034 0.744,-0.112 1.44,-0.325 2.086,-0.64 0.646,-0.318 1.204,-0.707 1.674,-1.167 0.47,-0.461 0.843,-0.974 1.118,-1.544 0.274,-0.569 0.41,-1.148 0.41,-1.74 0,-0.679 -0.148,-1.304 -0.443,-1.873 -0.297,-0.57 -0.696,-1.056 -1.2,-1.461 -0.503,-0.405 -1.095,-0.717 -1.773,-0.935 -0.679,-0.219 -1.39,-0.33 -2.135,-0.33 -0.986,0 -1.998,0.231 -3.038,0.691 -1.04,0.459 -1.899,1.104 -2.577,1.937 l 1.773,1.38 c 0.482,-0.482 1.056,-0.876 1.725,-1.183 0.668,-0.306 1.34,-0.461 2.019,-0.461 0.461,0 0.886,0.055 1.28,0.164 0.394,0.11 0.746,0.264 1.052,0.461 0.306,0.198 0.546,0.431 0.722,0.706 0.176,0.274 0.264,0.574 0.264,0.904 0,0.285 -0.1,0.574 -0.297,0.87 -0.198,0.295 -0.449,0.57 -0.755,0.821 -0.307,0.252 -0.667,0.481 -1.083,0.69 -0.416,0.208 -0.833,0.366 -1.249,0.475 -0.722,0.11 -1.401,0.328 -2.035,0.658 -0.636,0.328 -1.2,0.722 -1.692,1.182 -0.493,0.459 -0.882,0.958 -1.167,1.495 -0.284,0.534 -0.427,1.089 -0.427,1.658 0,0.656 0.155,1.259 0.46,1.805 0.307,0.549 0.717,1.019 1.232,1.413 0.514,0.394 1.118,0.694 1.806,0.903 0.691,0.209 1.417,0.312 2.184,0.312 1.052,0 2.074,-0.235 3.071,-0.706 C 0.357,2.699 1.204,2.102 1.906,1.38 Z" /></g><path
             inkscape:connector-curvature="0"
             id="path78"
             style="fill:#9d1344;fill-opacity:1;fill-rule:nonzero;stroke:none"
             d="m 417.785,204.355 h 2.299 v -16.454 h -2.299 z m -0.263,4.105 c 0,0.371 0.13,0.689 0.394,0.952 0.264,0.264 0.604,0.395 1.019,0.395 0.373,0 0.706,-0.131 1.001,-0.395 0.296,-0.263 0.443,-0.581 0.443,-0.952 0,-0.372 -0.147,-0.696 -0.443,-0.97 -0.295,-0.272 -0.628,-0.409 -1.001,-0.409 -0.415,0 -0.755,0.137 -1.019,0.409 -0.264,0.274 -0.394,0.598 -0.394,0.97" /><g
             transform="translate(434.665,199.856)"
             id="g80"><path
               inkscape:connector-curvature="0"
               id="path82"
               style="fill:#9d1344;fill-opacity:1;fill-rule:nonzero;stroke:none"
               d="m 0,0 c -0.592,0.701 -1.265,1.265 -2.02,1.692 -0.754,0.425 -1.527,0.64 -2.316,0.64 -0.767,0 -1.482,-0.16 -2.149,-0.477 -0.67,-0.317 -1.255,-0.754 -1.759,-1.312 -0.503,-0.561 -0.903,-1.206 -1.197,-1.939 -0.297,-0.735 -0.444,-1.527 -0.444,-2.381 0,-0.831 0.147,-1.619 0.444,-2.365 0.294,-0.744 0.694,-1.389 1.197,-1.937 0.504,-0.547 1.089,-0.98 1.759,-1.298 0.667,-0.316 1.382,-0.477 2.149,-0.477 0.768,0 1.513,0.192 2.234,0.577 0.722,0.381 1.39,0.924 2.004,1.625 l 1.741,-1.674 c -0.855,-0.9 -1.786,-1.61 -2.792,-2.137 -1.007,-0.524 -2.069,-0.786 -3.187,-0.786 -1.073,0 -2.086,0.225 -3.038,0.673 -0.952,0.447 -1.789,1.055 -2.511,1.822 -0.723,0.766 -1.294,1.663 -1.709,2.693 -0.416,1.028 -0.623,2.123 -0.623,3.284 0,1.161 0.207,2.256 0.623,3.284 0.415,1.03 0.986,1.928 1.709,2.694 0.722,0.765 1.559,1.374 2.511,1.822 0.952,0.45 1.965,0.673 3.038,0.673 1.14,0 2.234,-0.274 3.284,-0.821 C 0,3.327 0.919,2.617 1.707,1.74 Z" /></g><g
             transform="translate(447.311,195.651)"
             id="g84"><path
               inkscape:connector-curvature="0"
               id="path86"
               style="fill:#9d1344;fill-opacity:1;fill-rule:nonzero;stroke:none"
               d="m 0,0 h -2.989 c -0.919,0 -1.703,-0.262 -2.348,-0.789 -0.647,-0.524 -0.97,-1.225 -0.97,-2.101 0,-0.394 0.082,-0.756 0.246,-1.083 0.165,-0.33 0.389,-0.621 0.673,-0.87 0.285,-0.254 0.614,-0.451 0.986,-0.592 0.373,-0.142 0.777,-0.214 1.215,-0.214 0.438,0 0.855,0.072 1.25,0.214 0.393,0.141 0.731,0.338 1.016,0.592 0.284,0.249 0.509,0.54 0.675,0.87 C -0.082,-3.646 0,-3.284 0,-2.89 Z m 0,-7.126 c -0.461,-0.307 -0.964,-0.542 -1.513,-0.706 -0.546,-0.164 -1.103,-0.246 -1.674,-0.246 -0.745,0 -1.449,0.137 -2.119,0.41 -0.667,0.272 -1.246,0.646 -1.74,1.115 -0.491,0.473 -0.886,1.019 -1.183,1.644 -0.293,0.624 -0.442,1.297 -0.442,2.019 0,0.767 0.152,1.473 0.46,2.119 0.307,0.646 0.717,1.198 1.232,1.659 0.512,0.458 1.116,0.821 1.806,1.083 0.689,0.262 1.417,0.393 2.184,0.393 H 0 v 0.1 C 0,3.58 -0.252,4.526 -0.755,5.305 -1.261,6.081 -1.928,6.491 -2.759,6.536 -3.329,6.536 -3.947,6.487 -4.614,6.388 -5.284,6.29 -5.979,6.13 -6.7,5.912 L -7.292,8.21 c 0.768,0.219 1.528,0.389 2.283,0.51 0.755,0.12 1.516,0.18 2.283,0.18 0.677,-0.023 1.319,-0.186 1.92,-0.493 C -0.203,8.101 0.327,7.691 0.788,7.176 1.247,6.661 1.613,6.054 1.889,5.354 2.162,4.653 2.319,3.908 2.364,3.119 V 2.792 C 2.341,2.267 2.331,1.719 2.331,1.148 2.308,0.646 2.298,0.088 2.298,-0.525 v -1.871 c 0,-0.57 0.015,-1.134 0.049,-1.692 0.033,-0.558 0.088,-1.079 0.164,-1.561 0.078,-0.482 0.176,-0.91 0.297,-1.28 0.119,-0.373 0.257,-0.646 0.41,-0.821 H 0 Z" /></g><g
             transform="translate(469.085,195.651)"
             id="g88"><path
               inkscape:connector-curvature="0"
               id="path90"
               style="fill:#9d1344;fill-opacity:1;fill-rule:nonzero;stroke:none"
               d="m 0,0 h -2.989 c -0.919,0 -1.703,-0.262 -2.347,-0.789 -0.647,-0.524 -0.97,-1.225 -0.97,-2.101 0,-0.394 0.082,-0.756 0.246,-1.083 0.164,-0.33 0.388,-0.621 0.673,-0.87 0.285,-0.254 0.613,-0.451 0.986,-0.592 0.373,-0.142 0.776,-0.214 1.215,-0.214 0.437,0 0.855,0.072 1.249,0.214 0.394,0.141 0.732,0.338 1.016,0.592 0.285,0.249 0.51,0.54 0.676,0.87 C -0.082,-3.646 0,-3.284 0,-2.89 Z m 0,-7.126 c -0.46,-0.307 -0.964,-0.542 -1.512,-0.706 -0.547,-0.164 -1.104,-0.246 -1.674,-0.246 -0.746,0 -1.45,0.137 -2.119,0.41 -0.667,0.272 -1.247,0.646 -1.74,1.115 -0.492,0.473 -0.886,1.019 -1.183,1.644 -0.294,0.624 -0.443,1.297 -0.443,2.019 0,0.767 0.152,1.473 0.461,2.119 0.307,0.646 0.716,1.198 1.231,1.659 0.513,0.458 1.116,0.821 1.807,1.083 0.689,0.262 1.416,0.393 2.183,0.393 H 0 v 0.1 C 0,3.58 -0.251,4.526 -0.755,5.305 -1.26,6.081 -1.928,6.491 -2.759,6.536 -3.328,6.536 -3.947,6.487 -4.614,6.388 -5.283,6.29 -5.978,6.13 -6.7,5.912 L -7.291,8.21 c 0.767,0.219 1.527,0.389 2.283,0.51 0.755,0.12 1.516,0.18 2.282,0.18 0.677,-0.023 1.32,-0.186 1.92,-0.493 C -0.202,8.101 0.328,7.691 0.789,7.176 1.247,6.661 1.614,6.054 1.889,5.354 2.162,4.653 2.32,3.908 2.365,3.119 V 2.792 C 2.342,2.267 2.332,1.719 2.332,1.148 2.309,0.646 2.299,0.088 2.299,-0.525 v -1.871 c 0,-0.57 0.015,-1.134 0.049,-1.692 0.033,-0.558 0.088,-1.079 0.164,-1.561 0.078,-0.482 0.176,-0.91 0.296,-1.28 0.119,-0.373 0.257,-0.646 0.41,-0.821 H 0 Z" /></g><g
             transform="translate(476.277,203.073)"
             id="g92"><path
               inkscape:connector-curvature="0"
               id="path94"
               style="fill:#9d1344;fill-opacity:1;fill-rule:nonzero;stroke:none"
               d="m 0,0 c 0.985,0.964 2.211,1.445 3.678,1.445 1.03,0 1.955,-0.245 2.776,-0.739 0.819,-0.491 1.493,-1.155 2.02,-1.986 0.568,1.007 1.292,1.724 2.168,2.15 0.874,0.428 1.74,0.642 2.592,0.642 0.788,0 1.523,-0.159 2.202,-0.476 0.678,-0.318 1.27,-0.751 1.773,-1.298 0.504,-0.548 0.909,-1.2 1.216,-1.955 0.306,-0.755 0.47,-1.558 0.491,-2.413 l 0.066,-10.475 H 16.618 V -4.63 c -0.021,0.525 -0.127,1.013 -0.312,1.461 -0.186,0.449 -0.433,0.849 -0.74,1.198 -0.306,0.352 -0.672,0.624 -1.098,0.822 -0.428,0.197 -0.882,0.296 -1.364,0.296 -0.439,0 -0.849,-0.099 -1.231,-0.296 -0.385,-0.198 -0.74,-0.449 -1.067,-0.755 C 10.478,-2.211 10.196,-2.571 9.969,-2.987 9.738,-3.405 9.578,-3.82 9.492,-4.236 V -15.105 H 7.128 v 10.409 c 0,0.526 -0.1,1.018 -0.297,1.478 -0.197,0.459 -0.455,0.859 -0.77,1.198 -0.319,0.34 -0.698,0.609 -1.134,0.806 -0.44,0.197 -0.898,0.295 -1.38,0.295 -0.415,0 -0.816,-0.098 -1.197,-0.295 C 1.965,-1.411 1.619,-1.664 1.313,-1.971 1.007,-2.277 0.739,-2.638 0.509,-3.054 0.279,-3.469 0.109,-3.887 0,-4.303 v -10.869 h -2.365 v 14.45 c 0,0.131 -0.028,0.296 -0.082,0.493 -0.054,0.196 -0.13,0.393 -0.23,0.59 -0.097,0.197 -0.203,0.378 -0.312,0.542 -0.11,0.164 -0.207,0.291 -0.295,0.379 H 0 Z" /></g><g
             transform="translate(500.975,191.317)"
             id="g96"><path
               inkscape:connector-curvature="0"
               id="path98"
               style="fill:#9d1344;fill-opacity:1;fill-rule:nonzero;stroke:none"
               d="M 0,0 C 0,-0.176 0.109,-0.346 0.328,-0.509 0.547,-0.675 0.844,-0.812 1.216,-0.921 1.587,-1.03 2.025,-1.124 2.529,-1.2 c 0.503,-0.076 1.04,-0.127 1.61,-0.149 0.743,0.022 1.456,0.198 2.134,0.528 0.679,0.328 1.271,0.764 1.774,1.313 C 8.551,1.038 8.95,1.684 9.245,2.43 9.542,3.173 9.688,3.961 9.688,4.794 9.688,5.604 9.542,6.377 9.245,7.11 8.95,7.842 8.551,8.489 8.047,9.048 7.544,9.605 6.952,10.049 6.273,10.376 5.595,10.706 4.882,10.87 4.139,10.87 3.087,10.87 2.174,10.749 1.396,10.509 0.619,10.267 0.152,9.994 0,9.688 Z m 0,-3.416 h -3.053 c 0.173,0.239 0.306,0.552 0.394,0.937 0.086,0.381 0.164,0.758 0.228,1.13 0.067,0.416 0.121,0.868 0.166,1.349 v 18.95 h 2.363 v -6.471 c 1.139,0.504 2.486,0.755 4.041,0.755 1.094,0 2.123,-0.223 3.087,-0.672 0.963,-0.449 1.8,-1.064 2.512,-1.84 0.711,-0.777 1.275,-1.674 1.691,-2.693 0.417,-1.018 0.624,-2.097 0.624,-3.235 0,-1.161 -0.207,-2.256 -0.624,-3.283 C 11.013,0.48 10.445,-0.417 9.721,-1.183 8.999,-1.949 8.156,-2.562 7.192,-3.022 6.229,-3.482 5.2,-3.723 4.105,-3.744 3.272,-3.701 2.518,-3.613 1.841,-3.482 1.161,-3.35 0.547,-3.165 0,-2.925 Z" /></g><path
             inkscape:connector-curvature="0"
             id="path100"
             style="fill:#9d1344;fill-opacity:1;fill-rule:nonzero;stroke:none"
             d="m 515.853,204.355 h 2.299 v -16.454 h -2.299 z m -0.264,4.105 c 0,0.371 0.131,0.689 0.394,0.952 0.264,0.264 0.603,0.395 1.019,0.395 0.373,0 0.706,-0.131 1.001,-0.395 0.297,-0.263 0.442,-0.581 0.442,-0.952 0,-0.372 -0.145,-0.696 -0.442,-0.97 -0.295,-0.272 -0.628,-0.409 -1.001,-0.409 -0.416,0 -0.755,0.137 -1.019,0.409 -0.263,0.274 -0.394,0.598 -0.394,0.97" /><g
             transform="translate(531.55,197.294)"
             id="g102"><path
               inkscape:connector-curvature="0"
               id="path104"
               style="fill:#9d1344;fill-opacity:1;fill-rule:nonzero;stroke:none"
               d="m 0,0 c -0.088,0.7 -0.258,1.353 -0.51,1.953 -0.251,0.603 -0.563,1.122 -0.934,1.561 -0.372,0.437 -0.794,0.776 -1.264,1.018 -0.473,0.24 -0.97,0.362 -1.495,0.362 -0.505,0 -0.982,-0.127 -1.43,-0.379 C -6.082,4.264 -6.491,3.914 -6.864,3.465 -7.237,3.017 -7.553,2.495 -7.816,1.904 -8.078,1.313 -8.266,0.679 -8.374,0 Z m -3.842,-7.325 c 0.307,0 0.646,0.039 1.019,0.115 0.37,0.078 0.743,0.182 1.116,0.313 0.372,0.132 0.739,0.273 1.101,0.427 0.36,0.152 0.694,0.296 1.001,0.427 l 0.918,-2.07 C 0.612,-8.507 -0.098,-8.829 -0.821,-9.081 -1.543,-9.332 -2.266,-9.523 -2.989,-9.656 -3.12,-9.678 -3.269,-9.688 -3.433,-9.688 h -0.409 c -0.919,0 -1.791,0.202 -2.61,0.607 -0.822,0.404 -1.556,0.964 -2.201,1.675 -0.646,0.712 -1.167,1.549 -1.562,2.512 -0.393,0.964 -0.622,1.993 -0.688,3.087 v 0.624 c 0,1.162 0.181,2.256 0.543,3.285 0.36,1.028 0.842,1.925 1.443,2.692 0.604,0.767 1.31,1.374 2.119,1.824 0.81,0.447 1.674,0.673 2.595,0.673 0.94,0 1.81,-0.214 2.611,-0.642 C -0.794,6.224 -0.098,5.637 0.493,4.894 1.085,4.148 1.543,3.272 1.873,2.266 2.201,1.259 2.364,0.164 2.364,-1.019 v -1.28 H -8.44 c 0.087,-0.723 0.262,-1.39 0.526,-2.004 0.262,-0.612 0.595,-1.138 1.001,-1.576 0.406,-0.439 0.87,-0.788 1.395,-1.052 0.527,-0.261 1.085,-0.394 1.676,-0.394" /></g><g
             transform="translate(538.281,203.173)"
             id="g106"><path
               inkscape:connector-curvature="0"
               id="path108"
               style="fill:#9d1344;fill-opacity:1;fill-rule:nonzero;stroke:none"
               d="M 0,0 C 0.526,0.524 1.089,0.897 1.691,1.116 2.295,1.334 2.989,1.443 3.777,1.443 4.565,1.443 5.3,1.286 5.979,0.968 6.655,0.651 7.253,0.213 7.768,-0.346 8.282,-0.903 8.692,-1.562 8.999,-2.316 9.305,-3.071 9.469,-3.875 9.492,-4.729 L 9.557,-15.271 H 7.194 v 10.542 c 0,0.524 -0.099,1.022 -0.297,1.494 C 6.7,-2.765 6.437,-2.359 6.109,-2.02 5.781,-1.68 5.402,-1.413 4.976,-1.216 4.55,-1.019 4.096,-0.919 3.613,-0.919 3.198,-0.919 2.792,-1.013 2.398,-1.2 2.004,-1.386 1.648,-1.637 1.331,-1.955 1.013,-2.271 0.739,-2.64 0.509,-3.056 0.279,-3.472 0.109,-3.898 0,-4.336 v -10.935 h -2.332 v 14.516 c 0,0.282 -0.108,0.612 -0.327,0.985 -0.219,0.371 -0.416,0.644 -0.592,0.82 L 0,1.05 Z" /></g><g
             transform="translate(555.163,210.268)"
             id="g110"><path
               inkscape:connector-curvature="0"
               id="path112"
               style="fill:#9d1344;fill-opacity:1;fill-rule:nonzero;stroke:none"
               d="M 0,0 V -6.109 H 4.138 V -8.508 H 0 v -13.858 h -2.332 v 13.858 h -2.332 v 2.399 h 2.266 V 0 Z" /></g><g
             transform="translate(570.04,195.651)"
             id="g114"><path
               inkscape:connector-curvature="0"
               id="path116"
               style="fill:#9d1344;fill-opacity:1;fill-rule:nonzero;stroke:none"
               d="m 0,0 h -2.989 c -0.919,0 -1.703,-0.262 -2.347,-0.789 -0.648,-0.524 -0.97,-1.225 -0.97,-2.101 0,-0.394 0.082,-0.756 0.245,-1.083 0.165,-0.33 0.389,-0.621 0.674,-0.87 0.284,-0.254 0.613,-0.451 0.986,-0.592 0.372,-0.142 0.776,-0.214 1.215,-0.214 0.437,0 0.855,0.072 1.249,0.214 0.394,0.141 0.731,0.338 1.016,0.592 0.285,0.249 0.51,0.54 0.675,0.87 C -0.082,-3.646 0,-3.284 0,-2.89 Z m 0,-7.126 c -0.46,-0.307 -0.964,-0.542 -1.512,-0.706 -0.547,-0.164 -1.104,-0.246 -1.674,-0.246 -0.746,0 -1.45,0.137 -2.119,0.41 -0.668,0.272 -1.247,0.646 -1.741,1.115 -0.491,0.473 -0.886,1.019 -1.182,1.644 -0.294,0.624 -0.443,1.297 -0.443,2.019 0,0.767 0.152,1.473 0.461,2.119 0.306,0.646 0.716,1.198 1.231,1.659 0.513,0.458 1.116,0.821 1.807,1.083 0.689,0.262 1.416,0.393 2.183,0.393 H 0 v 0.1 C 0,3.58 -0.252,4.526 -0.755,5.305 -1.26,6.081 -1.928,6.491 -2.759,6.536 -3.328,6.536 -3.947,6.487 -4.614,6.388 -5.283,6.29 -5.979,6.13 -6.7,5.912 L -7.291,8.21 c 0.767,0.219 1.527,0.389 2.282,0.51 0.756,0.12 1.517,0.18 2.283,0.18 0.677,-0.023 1.32,-0.186 1.92,-0.493 C -0.203,8.101 0.328,7.691 0.788,7.176 1.247,6.661 1.614,6.054 1.889,5.354 2.162,4.653 2.32,3.908 2.365,3.119 V 2.792 C 2.342,2.267 2.332,1.719 2.332,1.148 2.309,0.646 2.299,0.088 2.299,-0.525 v -1.871 c 0,-0.57 0.015,-1.134 0.049,-1.692 0.033,-0.558 0.088,-1.079 0.164,-1.561 0.078,-0.482 0.175,-0.91 0.296,-1.28 0.119,-0.373 0.257,-0.646 0.41,-0.821 H 0 Z" /></g><path
             inkscape:connector-curvature="0"
             id="path118"
             style="fill:#9d1344;fill-opacity:1;fill-rule:nonzero;stroke:none"
             d="m 575.361,210.268 h 2.331 v -22.366 h -2.331 z" /></g></g><g
         id="g120"><g
           id="g122"><g
             id="g128"><g
               id="g130"><path
                 inkscape:connector-curvature="0"
                 id="path138"
                 style="fill:url(#linearGradient136);stroke:none"
                 d="m 199.416,398.477 -1.455,-0.156 v -25.51 l 77.454,0.048 1.674,-0.046 v 25.511 l -1.458,0.153 c -0.232,0.025 -23.385,2.435 -37.849,2.435 v 0 c -15.531,0 -38.14,-2.411 -38.366,-2.435" /></g></g></g></g><g
         id="g140"><g
           id="g142"><g
             id="g148"><g
               id="g150"><path
                 inkscape:connector-curvature="0"
                 id="path158"
                 style="fill:url(#linearGradient156);stroke:none"
                 d="m 197.961,259.207 1.512,-0.108 c 0.225,-0.017 22.788,-1.621 36.692,-1.621 v 0 c 14.967,0 39.163,1.604 39.405,1.619 v 0 l 1.519,0.102 v 25.64 l -1.74,-0.12 c -0.208,-0.016 -18.689,-1.296 -33.601,-1.565 v 0 l -10.194,10e-4 c -14.92,0.268 -31.653,1.548 -31.84,1.562 v 0 l -1.753,0.135 z" /></g></g></g></g><g
         id="g160"><g
           id="g162"><g
             id="g168"><g
               id="g170"><path
                 inkscape:connector-curvature="0"
                 id="path178"
                 style="fill:url(#linearGradient176);stroke:none"
                 d="m 236.631,251.158 c -9.26,0 -37.042,0.809 -37.042,0.809 v 0 l -9.732,-10.605 h 95.338 l -9.734,10.605 c 0,0 -29.123,-0.809 -38.83,-0.809" /></g></g></g></g><g
         id="g180"><g
           id="g182"><g
             id="g188"><g
               id="g190"><path
                 inkscape:connector-curvature="0"
                 id="path198"
                 style="fill:url(#linearGradient196);stroke:none"
                 d="m 199.481,365.769 -1.521,-0.1 v -71.122 l 1.448,-0.161 c 0.982,-0.108 22.574,-2.479 35.772,-2.479 v 0 c 1.03,0 2.01,0.015 2.925,0.047 v 0 c 15.222,0.518 37.274,2.411 37.495,2.43 v 0 l 1.487,0.128 v 71.152 l -1.516,0.105 c -0.238,0.016 -23.882,1.62 -37.256,1.62 v 0 c -13.896,0 -38.586,-1.604 -38.834,-1.62 m 59.249,-38.973 -5.954,18.674 c 5.036,-5.04 6.018,-11.566 6.101,-15.419 v 0 h -0.147 c 0.069,-0.478 0.109,-0.946 0.141,-1.411 v 0 c -0.039,-1.147 -0.141,-1.844 -0.141,-1.844 v 0 h 0.178 c -0.129,-3.48 -1.297,-6.564 -3.021,-9.263 v 0 z m -39.871,3.255 -0.126,-3.255 h -17.417 z m -17.644,-2.077 0.101,-1.178 -0.101,-1.728 z m 17.489,-1.939 -0.222,-5.755 c -0.258,1.721 -0.212,3.634 0.222,5.755 m 0.062,-7.158 8.741,-10.119 c -3.698,2.019 -7.471,5.22 -8.741,10.119 m 17.188,-13.218 c 0,0 -3.267,0.6 -6.99,2.36 v 0 l 12.202,-2.711 c -2.466,-1.243 -4.183,-1.869 -4.183,-1.869 v 0 l 0.804,-8.239 c -0.063,-0.002 -0.128,-0.004 -0.191,-0.005 v 0 z" /></g></g></g></g><g
         id="g200"><g
           clip-path="url(#clipPath206)"
           id="g202"><g
             transform="translate(277.092,330.051)"
             id="g208"><path
               inkscape:connector-curvature="0"
               id="path210"
               style="fill:#ffffff;fill-opacity:1;fill-rule:nonzero;stroke:none"
               d="m 0,0 h -17.031 c -0.151,1.727 -0.459,3.432 -0.923,5.099 h 4.02 v 3.255 h -5.141 c -0.744,1.792 -1.673,3.521 -2.79,5.161 -3.854,5.656 -9.485,9.65 -16.017,11.426 v 12.954 h -3.256 V 23.564 h 0.69 l -0.248,-1.305 c 6.617,-1.255 12.35,-5.011 16.14,-10.577 3.793,-5.564 5.19,-12.273 3.934,-18.89 -0.987,-5.208 -3.943,-9.72 -8.325,-12.704 -4.379,-2.983 -9.662,-4.086 -14.868,-3.096 -4.082,0.774 -7.617,3.09 -9.955,6.523 -2.339,3.433 -3.201,7.57 -2.427,11.65 1.246,6.563 7.605,10.896 14.16,9.646 2.458,-0.465 4.587,-1.861 5.996,-3.929 1.409,-2.068 1.927,-4.56 1.461,-7.017 -0.356,-1.882 -1.424,-3.511 -3.007,-4.589 -1.581,-1.077 -3.495,-1.474 -5.369,-1.118 -2.929,0.556 -4.862,3.391 -4.307,6.321 0.199,1.05 0.795,1.959 1.679,2.562 0.885,0.602 1.954,0.825 2.997,0.625 1.558,-0.296 2.584,-1.805 2.29,-3.36 -0.099,-0.52 -0.392,-0.969 -0.828,-1.266 -0.436,-0.297 -0.963,-0.408 -1.479,-0.308 l -0.608,-3.198 c 1.374,-0.256 2.763,0.028 3.92,0.817 1.153,0.787 1.934,1.976 2.193,3.349 0.629,3.319 -1.561,6.532 -4.881,7.163 -1.902,0.363 -3.833,-0.04 -5.437,-1.132 -1.603,-1.091 -2.683,-2.741 -3.044,-4.645 -0.889,-4.693 2.206,-9.236 6.898,-10.126 2.74,-0.518 5.509,0.057 7.809,1.626 2.301,1.567 3.854,3.936 4.372,6.672 0.628,3.312 -0.072,6.671 -1.969,9.457 -1.898,2.786 -4.767,4.666 -8.079,5.294 -7.061,1.349 -13.916,-2.411 -16.803,-8.663 V 0 h -20.799 v -3.255 h 19.873 c -0.083,-0.322 -0.173,-0.641 -0.236,-0.973 -0.209,-1.105 -0.305,-2.214 -0.318,-3.316 h -4.981 V -10.8 h 5.234 c 0.439,-2.661 1.436,-5.221 2.999,-7.517 2.829,-4.152 7.103,-6.953 12.038,-7.889 1.102,-0.209 2.196,-0.31 3.285,-0.358 v -12.159 h 3.256 v 12.227 c 9.946,0.973 18.505,8.378 20.458,18.681 0.288,1.52 0.446,3.044 0.489,4.56 H 0 Z" /></g></g></g><g
         id="g212"><g
           id="g214"><g
             id="g220"><g
               id="g222"><path
                 inkscape:connector-curvature="0"
                 id="path230"
                 style="fill:url(#linearGradient228);stroke:none"
                 d="m 141.5,426.659 v -16.156 h 10.182 l 0.671,8.84 h 167.448 l 0.671,-8.84 h 10.182 v 16.156 z" /></g></g></g></g><g
         id="g232"><g
           clip-path="url(#clipPath238)"
           id="g234"><g
             transform="translate(327.456,310.419)"
             id="g240"><path
               inkscape:connector-curvature="0"
               id="path242"
               style="fill:#9d1344;fill-opacity:1;fill-rule:nonzero;stroke:none"
               d="M 0,0 H -5.729 L 2.668,11.165 H 14.03 Z m 15.808,-37.544 h -28.651 v -25.392 h 33.59 v -7.211 h -40.703 v 68.269 h 40.703 v -7.014 h -33.59 v -21.44 h 28.651 z" /></g><g
             transform="translate(421.511,294.414)"
             id="g244"><path
               inkscape:connector-curvature="0"
               id="path246"
               style="fill:#9d1344;fill-opacity:1;fill-rule:nonzero;stroke:none"
               d="m 0,0 c -2.108,2.305 -4.578,4.083 -7.41,5.335 -2.832,1.249 -5.829,1.877 -8.99,1.877 -3.295,0 -6.389,-0.709 -9.287,-2.125 -2.9,-1.416 -5.434,-3.359 -7.607,-5.829 -2.174,-2.47 -3.888,-5.351 -5.138,-8.644 -1.253,-3.294 -1.877,-6.851 -1.877,-10.67 0,-3.82 0.624,-7.41 1.877,-10.771 1.25,-3.357 2.947,-6.29 5.087,-8.791 2.141,-2.505 4.659,-4.48 7.559,-5.927 2.898,-1.452 6.026,-2.174 9.386,-2.174 3.424,0 6.603,0.722 9.534,2.174 2.929,1.447 5.484,3.422 7.656,5.927 2.175,2.501 3.868,5.434 5.089,8.791 1.218,3.361 1.828,6.951 1.828,10.771 0,4.016 -0.676,7.756 -2.026,11.214 C 4.331,-5.386 2.437,-2.438 0,0 m 5.237,-45.447 c -2.834,-3.097 -6.078,-5.469 -9.732,-7.113 -3.655,-1.647 -7.624,-2.472 -11.905,-2.472 -4.15,0 -8.119,0.89 -11.906,2.668 -3.788,1.779 -7.113,4.233 -9.978,7.361 -2.865,3.127 -5.138,6.833 -6.817,11.115 -1.679,4.281 -2.52,8.891 -2.52,13.832 0,4.807 0.823,9.302 2.472,13.485 1.644,4.182 3.868,7.838 6.668,10.967 2.798,3.127 6.091,5.597 9.88,7.411 3.786,1.81 7.854,2.715 12.201,2.715 4.478,0 8.61,-0.905 12.399,-2.715 3.787,-1.814 7.064,-4.266 9.831,-7.362 2.765,-3.096 4.94,-6.753 6.521,-10.966 1.579,-4.216 2.371,-8.728 2.371,-13.535 0,-5.138 -0.826,-9.849 -2.47,-14.128 -1.648,-4.283 -3.986,-8.037 -7.015,-11.263" /></g><g
             transform="translate(491.458,301.527)"
             id="g248"><path
               inkscape:connector-curvature="0"
               id="path250"
               style="fill:#9d1344;fill-opacity:1;fill-rule:nonzero;stroke:none"
               d="M 0,0 V -61.256 H -7.212 V 0 H -28.553 V 7.013 H 21.143 V 0 Z" /></g><g
             transform="translate(546.687,247.483)"
             id="g252"><path
               inkscape:connector-curvature="0"
               id="path254"
               style="fill:#9d1344;fill-opacity:1;fill-rule:nonzero;stroke:none"
               d="M 0,0 H 31.813 V -7.212 H -7.113 V 61.057 H 0 Z" /></g></g></g></g></g></svg>