<?xml version="1.0" encoding="UTF-8" standalone="no"?>
<svg
   xmlns:dc="http://purl.org/dc/elements/1.1/"
   xmlns:cc="http://creativecommons.org/ns#"
   xmlns:rdf="http://www.w3.org/1999/02/22-rdf-syntax-ns#"
   xmlns:svg="http://www.w3.org/2000/svg"
   xmlns="http://www.w3.org/2000/svg"
   xmlns:sodipodi="http://sodipodi.sourceforge.net/DTD/sodipodi-0.dtd"
   xmlns:inkscape="http://www.inkscape.org/namespaces/inkscape"
   width="12px"
   height="16px"
   viewBox="0 0 12 16"
   version="1.1"
   id="svg11"
   sodipodi:docname="rain.svg"
   inkscape:version="0.92.4 (5da689c313, 2019-01-14)">
  <metadata
     id="metadata15">
    <rdf:RDF>
      <cc:Work
         rdf:about="">
        <dc:format>image/svg+xml</dc:format>
        <dc:type
           rdf:resource="http://purl.org/dc/dcmitype/StillImage" />
      </cc:Work>
    </rdf:RDF>
  </metadata>
  <sodipodi:namedview
     pagecolor="#ffffff"
     bordercolor="#666666"
     borderopacity="1"
     objecttolerance="10"
     gridtolerance="10"
     guidetolerance="10"
     inkscape:pageopacity="0"
     inkscape:pageshadow="2"
     inkscape:window-width="1920"
     inkscape:window-height="1001"
     id="namedview13"
     showgrid="false"
     inkscape:zoom="14.75"
     inkscape:cx="6"
     inkscape:cy="8"
     inkscape:window-x="-9"
     inkscape:window-y="-9"
     inkscape:window-maximized="1"
     inkscape:current-layer="svg11" />
  <!-- Generator: Sketch 40.1 (33804) - http://www.bohemiancoding.com/sketch -->
  <title
     id="title2">rain</title>
  <desc
     id="desc4">Created with Sketch.</desc>
  <defs
     id="defs6" />
  <g
     id="Page-1"
     stroke="none"
     stroke-width="1"
     fill="none"
     fill-rule="evenodd"
     style="opacity:0.32587065">
    <g
       id="rain"
       fill="#000000"
       style="">
      <path
         d="M4,0.990777969 C4,0.443586406 4.44386482,0 5,0 C5.55228475,0 6,0.45097518 6,0.990777969 L6,5.00922203 C6,5.55641359 5.55613518,6 5,6 C4.44771525,6 4,5.54902482 4,5.00922203 L4,0.990777969 Z M10,8.99077797 C10,8.44358641 10.4438648,8 11,8 C11.5522847,8 12,8.45097518 12,8.99077797 L12,13.009222 C12,13.5564136 11.5561352,14 11,14 C10.4477153,14 10,13.5490248 10,13.009222 L10,8.99077797 Z"
         id="Combined-Shape"
         style="" />
    </g>
  </g>
</svg>
